<?xml version="1.0" encoding="utf-8"?>
<!-- Generator: Adobe Illustrator 23.1.0, SVG Export Plug-In . SVG Version: 6.00 Build 0)  -->
<svg version="1.1" id="Lager_1" xmlns="http://www.w3.org/2000/svg" xmlns:xlink="http://www.w3.org/1999/xlink" x="0px" y="0px"
	 viewBox="0 0 504 504" style="enable-background:new 0 0 504 504;" xml:space="preserve">
<style type="text/css">
	.st0{fill:#FFFFFF;}
</style>
<g>
	<path class="st0" d="M401.1,277.2H504v-50.4H401.1c1.4,8.2,2.1,16.6,2.1,25.2C403.2,260.6,402.5,269,401.1,277.2z"/>
	<path class="st0" d="M102.9,226.8H0v50.4h102.9c-1.4-8.2-2.1-16.6-2.1-25.2C100.8,243.4,101.5,235,102.9,226.8z"/>
	<path class="st0" d="M277.2,102.9V0h-50.4v102.9c8.2-1.4,16.6-2.1,25.2-2.1S269,101.5,277.2,102.9z"/>
	<path class="st0" d="M226.8,401.1V504h50.4V401.1c-8.2,1.4-16.6,2.1-25.2,2.1S235,402.5,226.8,401.1z"/>
	<path class="st0" d="M164.4,128.8L91.6,56L56,91.6l72.8,72.8C138.6,150.6,150.6,138.6,164.4,128.8z"/>
	<path class="st0" d="M339.6,375.2l72.8,72.8l35.6-35.6l-72.8-72.8C365.4,353.4,353.4,365.4,339.6,375.2z"/>
	<path class="st0" d="M375.2,164.4L448,91.6L412.4,56l-72.8,72.8C353.4,138.6,365.4,150.6,375.2,164.4z"/>
	<path class="st0" d="M128.8,339.6L56,412.4L91.6,448l72.8-72.8C150.6,365.4,138.6,353.4,128.8,339.6z"/>
</g>
<circle class="st0" cx="252" cy="252" r="100.8"/>
</svg>
