<?xml version="1.0" encoding="utf-8"?>
<!-- Generator: Adobe Illustrator 23.1.0, SVG Export Plug-In . SVG Version: 6.00 Build 0)  -->
<svg version="1.1" id="Lager_1" xmlns="http://www.w3.org/2000/svg" xmlns:xlink="http://www.w3.org/1999/xlink" x="0px" y="0px"
	 viewBox="0 0 500 500" style="enable-background:new 0 0 500 500;" xml:space="preserve">
<style type="text/css">
	.st0{fill:#FFFFFF;}
</style>
<path class="st0" d="M313.08,311.24c-3.56-24.87-13.32-47.73-27.71-66.95l15.89-15.89l-29.66-29.66l-15.89,15.89
	c-19.21-14.39-42.08-24.16-66.95-27.71v-22.49h-41.95v22.49c-24.87,3.56-47.73,13.32-66.95,27.71l-15.89-15.89L34.31,228.4
	l15.89,15.89c-14.39,19.21-24.16,42.08-27.71,66.95H0v41.95h22.49c3.56,24.87,13.32,47.73,27.71,66.95l-15.89,15.89l29.66,29.66
	l15.89-15.89c19.21,14.39,42.08,24.16,66.95,27.71V500h41.95v-22.49c24.87-3.56,47.73-13.32,66.95-27.71l15.89,15.89l29.66-29.66
	l-15.89-15.89c14.39-19.21,24.16-42.08,27.71-66.95h22.49v-41.95H313.08z M167.79,416.11c-46.33,0-83.89-37.56-83.89-83.89
	s37.56-83.89,83.89-83.89s83.89,37.56,83.89,83.89S214.12,416.11,167.79,416.11z"/>
<path class="st0" d="M479.52,151.71c4.74-18.53,4.53-37.47,0-55.18l15.81-6.55l-12.23-29.51l-15.81,6.55
	c-9.33-15.72-22.57-29.25-39.03-39l6.55-15.82L405.28,0l-6.55,15.82c-18.53-4.74-37.47-4.53-55.18,0L337,0.02L307.5,12.25
	l6.55,15.81c-15.72,9.33-29.25,22.57-39,39.03l-15.82-6.55l-12.21,29.51l15.82,6.55c-4.74,18.53-4.53,37.47,0,55.17l-15.81,6.55
	l12.23,29.51l15.81-6.55c9.33,15.72,22.57,29.25,39.03,39l-6.55,15.82l29.51,12.21l6.55-15.82c18.53,4.74,37.47,4.53,55.18,0
	l6.55,15.81l29.51-12.23l-6.55-15.81c15.72-9.33,29.25-22.57,39-39.03l15.82,6.55l12.21-29.51L479.52,151.71z M346.75,183.19
	c-32.6-13.49-48.09-50.86-34.6-83.46s50.86-48.09,83.46-34.6s48.09,50.86,34.6,83.46S379.35,196.68,346.75,183.19z"/>
</svg>
